<svg width="24" height="24" viewBox="0 0 24 24" fill="none" xmlns="http://www.w3.org/2000/svg">
<path d="M11.3216 3H5.09156C3.10156 3 2.10156 4.01 2.10156 6.02V22H7.50156V18.25C7.50156 17.84 7.84156 17.5 8.25156 17.5C8.66156 17.5 9.00156 17.83 9.00156 18.25V22H14.3016V6.02C14.3016 4.01 13.3116 3 11.3216 3ZM10.7516 12.75H5.80156C5.39156 12.75 5.05156 12.41 5.05156 12C5.05156 11.59 5.39156 11.25 5.80156 11.25H10.7516C11.1616 11.25 11.5016 11.59 11.5016 12C11.5016 12.41 11.1616 12.75 10.7516 12.75ZM10.7516 9H5.80156C5.39156 9 5.05156 8.66 5.05156 8.25C5.05156 7.84 5.39156 7.5 5.80156 7.5H10.7516C11.1616 7.5 11.5016 7.84 11.5016 8.25C11.5016 8.66 11.1616 9 10.7516 9Z" fill="#E3E9FF"/>
<path d="M23 21.2501H20.73V18.2501C21.68 17.9401 22.37 17.0501 22.37 16.0001V14.0001C22.37 12.6901 21.3 11.6201 19.99 11.6201C18.68 11.6201 17.61 12.6901 17.61 14.0001V16.0001C17.61 17.0401 18.29 17.9201 19.22 18.2401V21.2501H1C0.59 21.2501 0.25 21.5901 0.25 22.0001C0.25 22.4101 0.59 22.7501 1 22.7501H19.93C19.95 22.7501 19.96 22.7601 19.98 22.7601C20 22.7601 20.01 22.7501 20.03 22.7501H23C23.41 22.7501 23.75 22.4101 23.75 22.0001C23.75 21.5901 23.41 21.2501 23 21.2501Z" fill="#E3E9FF"/>
</svg>
