<svg width="25" height="24" viewBox="0 0 25 24" fill="none" xmlns="http://www.w3.org/2000/svg">
<path d="M2.76414 18.6498C2.35379 18.6498 2.01349 18.3098 2.01349 17.8998V12.1998C1.96345 9.4898 2.97433 6.9298 4.85596 5.0098C6.7376 3.0998 9.25979 2.0498 11.9721 2.0498C17.517 2.0498 22.0309 6.5598 22.0309 12.0998V17.7998C22.0309 18.2098 21.6906 18.5498 21.2802 18.5498C20.8699 18.5498 20.5296 18.2098 20.5296 17.7998V12.0998C20.5296 7.3898 16.6962 3.5498 11.9721 3.5498C9.66014 3.5498 7.51827 4.43981 5.92689 6.0598C4.3255 7.68981 3.47476 9.85981 3.5148 12.1798V17.8898C3.5148 18.3098 3.18451 18.6498 2.76414 18.6498Z" fill="#E3E9FF"/>
<path d="M5.95514 12.4502H5.82503C3.72321 12.4502 2.01172 14.1602 2.01172 16.2602V18.1402C2.01172 20.2402 3.72321 21.9502 5.82503 21.9502H5.95514C8.05697 21.9502 9.76846 20.2402 9.76846 18.1402V16.2602C9.76846 14.1602 8.05697 12.4502 5.95514 12.4502Z" fill="#E3E9FF"/>
<path d="M18.2169 12.4502H18.0867C15.9849 12.4502 14.2734 14.1602 14.2734 16.2602V18.1402C14.2734 20.2402 15.9849 21.9502 18.0867 21.9502H18.2169C20.3187 21.9502 22.0302 20.2402 22.0302 18.1402V16.2602C22.0302 14.1602 20.3187 12.4502 18.2169 12.4502Z" fill="#E3E9FF"/>
</svg>
