<svg width="28" height="28" viewBox="0 0 28 28" fill="none" xmlns="http://www.w3.org/2000/svg">
<path d="M25.6666 18.8885C25.6666 23.1352 23.1349 25.6668 18.8883 25.6668H17.4999C16.8583 25.6668 16.3333 25.1418 16.3333 24.5002V17.7685C16.3333 17.4535 16.5899 17.1852 16.9049 17.1852L18.9583 17.1502C19.1216 17.1385 19.2616 17.0218 19.2966 16.8585L19.7049 14.6302C19.7399 14.4202 19.5766 14.2218 19.3549 14.2218L16.8699 14.2568C16.5432 14.2568 16.2866 14.0002 16.2749 13.6852L16.2283 10.8268C16.2283 10.6402 16.3799 10.4768 16.5782 10.4768L19.3782 10.4302C19.5766 10.4302 19.7283 10.2785 19.7283 10.0802L19.6816 7.28015C19.6816 7.08182 19.5299 6.93017 19.3316 6.93017L16.1816 6.97684C14.2449 7.01184 12.7049 8.5985 12.7399 10.5352L12.7983 13.7435C12.8099 14.0702 12.5533 14.3268 12.2266 14.3385L10.8266 14.3618C10.6283 14.3618 10.4766 14.5135 10.4766 14.7118L10.5116 16.9285C10.5116 17.1268 10.6632 17.2785 10.8616 17.2785L12.2616 17.2552C12.5883 17.2552 12.8449 17.5118 12.8566 17.8268L12.9616 24.4768C12.9732 25.1302 12.4482 25.6668 11.7949 25.6668H9.11158C4.86492 25.6668 2.33325 23.1352 2.33325 18.8768V9.11183C2.33325 4.86516 4.86492 2.3335 9.11158 2.3335H18.8883C23.1349 2.3335 25.6666 4.86516 25.6666 9.11183V18.8885Z" fill="#4067F0"/>
</svg>
