<svg width="23" height="23" viewBox="0 0 23 23" fill="none" xmlns="http://www.w3.org/2000/svg">
<path d="M17.25 0.433594H5.75C2.576 0.433594 0 2.88782 0 5.91433V12.4956V13.5962C0 16.6227 2.576 19.0769 5.75 19.0769H7.475C7.7855 19.0769 8.1995 19.275 8.395 19.5171L10.12 21.7072C10.879 22.6757 12.121 22.6757 12.88 21.7072L14.605 19.5171C14.8235 19.242 15.1685 19.0769 15.525 19.0769H17.25C20.424 19.0769 23 16.6227 23 13.5962V5.91433C23 2.88782 20.424 0.433594 17.25 0.433594ZM6.9 11.4391C6.256 11.4391 5.75 10.9438 5.75 10.3385C5.75 9.73324 6.2675 9.238 6.9 9.238C7.5325 9.238 8.05 9.73324 8.05 10.3385C8.05 10.9438 7.544 11.4391 6.9 11.4391ZM11.5 11.4391C10.856 11.4391 10.35 10.9438 10.35 10.3385C10.35 9.73324 10.8675 9.238 11.5 9.238C12.1325 9.238 12.65 9.73324 12.65 10.3385C12.65 10.9438 12.144 11.4391 11.5 11.4391ZM16.1 11.4391C15.456 11.4391 14.95 10.9438 14.95 10.3385C14.95 9.73324 15.4675 9.238 16.1 9.238C16.7325 9.238 17.25 9.73324 17.25 10.3385C17.25 10.9438 16.744 11.4391 16.1 11.4391Z" fill="#E3E9FF"/>
</svg>
