<svg width="69" height="69" viewBox="0 0 69 69" fill="none" xmlns="http://www.w3.org/2000/svg">
<rect width="69" height="69" rx="34.5" fill="#F1F4FF"/>
<path d="M37.1442 23.25H31.8567C30.6867 23.25 29.7305 24.195 29.7305 25.365V26.4225C29.7305 27.5925 30.6755 28.5375 31.8455 28.5375H37.1442C38.3142 28.5375 39.2592 27.5925 39.2592 26.4225V25.365C39.2705 24.195 38.3142 23.25 37.1442 23.25Z" fill="#5071E6"/>
<path d="M40.393 26.4224C40.393 28.2112 38.9305 29.6737 37.1417 29.6737H31.8542C30.0655 29.6737 28.603 28.2112 28.603 26.4224C28.603 25.7924 27.928 25.3987 27.3655 25.6912C25.7792 26.5349 24.6992 28.2112 24.6992 30.1349V40.7212C24.6992 43.4887 26.9605 45.7499 29.728 45.7499H39.268C42.0355 45.7499 44.2967 43.4887 44.2967 40.7212V30.1349C44.2967 28.2112 43.2167 26.5349 41.6305 25.6912C41.068 25.3987 40.393 25.7924 40.393 26.4224Z" fill="#5071E6"/>
<g clip-path="url(#clip0_455_5071)">
<path d="M34.5 33.875V39.125" stroke="white" stroke-width="2" stroke-linecap="round" stroke-linejoin="round"/>
<path d="M31.875 36.5H37.125" stroke="white" stroke-width="2" stroke-linecap="round" stroke-linejoin="round"/>
</g>
<defs>
<clipPath id="clip0_455_5071">
<rect width="9" height="9" fill="white" transform="translate(30 32)"/>
</clipPath>
</defs>
</svg>
