<svg width="21" height="21" viewBox="0 0 21 21" fill="none" xmlns="http://www.w3.org/2000/svg">
<path d="M2.25672 16.6339L2.23922 16.6514C2.00297 16.1351 1.85422 15.5489 1.79297 14.9014C1.85422 15.5401 2.02047 16.1176 2.25672 16.6339Z" fill="white"/>
<path d="M7.87547 9.08248C9.0256 9.08248 9.95797 8.15011 9.95797 6.99998C9.95797 5.84985 9.0256 4.91748 7.87547 4.91748C6.72534 4.91748 5.79297 5.84985 5.79297 6.99998C5.79297 8.15011 6.72534 9.08248 7.87547 9.08248Z" fill="white"/>
<path d="M14.1663 1.75H6.83375C3.64875 1.75 1.75 3.64875 1.75 6.83375V14.1663C1.75 15.12 1.91625 15.9513 2.24 16.6513C2.9925 18.3138 4.6025 19.25 6.83375 19.25H14.1663C17.3513 19.25 19.25 17.3513 19.25 14.1663V12.1625V6.83375C19.25 3.64875 17.3513 1.75 14.1663 1.75ZM17.8238 10.9375C17.1413 10.3512 16.0387 10.3512 15.3562 10.9375L11.7163 14.0612C11.0338 14.6475 9.93125 14.6475 9.24875 14.0612L8.95125 13.8162C8.33 13.2738 7.34125 13.2212 6.64125 13.6937L3.36875 15.89C3.17625 15.4 3.0625 14.8313 3.0625 14.1663V6.83375C3.0625 4.36625 4.36625 3.0625 6.83375 3.0625H14.1663C16.6337 3.0625 17.9375 4.36625 17.9375 6.83375V11.0337L17.8238 10.9375Z" fill="white"/>
</svg>
