<svg width="28" height="28" viewBox="0 0 28 28" fill="none" xmlns="http://www.w3.org/2000/svg">
<path d="M14.0001 1.1665C6.91608 1.1665 1.16675 6.91584 1.16675 13.9998C1.16675 21.0838 6.91608 26.8332 14.0001 26.8332C21.0841 26.8332 26.8334 21.0838 26.8334 13.9998C26.8334 6.91584 21.0841 1.1665 14.0001 1.1665ZM14.0001 7.73716C15.6812 7.73716 17.0544 9.11034 17.0544 10.7915C17.0544 12.4727 15.6812 13.8458 14.0001 13.8458C12.3189 13.8458 10.9457 12.4727 10.9457 10.7915C10.9457 9.11034 12.3189 7.73716 14.0001 7.73716ZM17.1699 20.532C16.9902 20.6732 16.7849 20.7373 16.5796 20.7373C16.2973 20.7373 16.0149 20.609 15.8224 20.378L14.0129 18.0937L12.2034 20.378C11.8826 20.7887 11.2666 20.8657 10.8559 20.532C10.4452 20.1983 10.3682 19.5952 10.7019 19.1845L12.2291 17.2467C11.8184 17.1312 11.4077 16.99 11.0227 16.7975C10.5479 16.5537 10.3554 15.9762 10.5992 15.5014C10.8302 15.0265 11.4077 14.834 11.8954 15.0778C13.2301 15.7452 14.8214 15.7452 16.1561 15.0778C16.6181 14.8468 17.2084 15.0265 17.4394 15.4885C17.6832 15.9505 17.5164 16.528 17.0544 16.7718C16.6566 16.9772 16.233 17.1183 15.8095 17.2338L17.3496 19.1717C17.6447 19.5952 17.5805 20.1983 17.1699 20.532Z" fill="#FF7A00"/>
</svg>
