<svg width="20" height="21" viewBox="0 0 20 21" fill="none" xmlns="http://www.w3.org/2000/svg">
<path d="M20.0002 16.7633C20.0002 17.1234 19.9201 17.4933 19.7498 17.8533C19.5796 18.2134 19.3592 18.5534 19.0688 18.8734C18.5781 19.4134 18.0372 19.8034 17.4263 20.0534C16.8254 20.3034 16.1744 20.4333 15.4734 20.4333C14.4519 20.4333 13.3602 20.1933 12.2085 19.7034C11.0568 19.2134 9.90504 18.5534 8.76333 17.7234C7.6116 16.8834 6.51996 15.9533 5.4784 14.9233C4.44685 13.8833 3.51546 12.7934 2.68421 11.6533C1.86298 10.5133 1.20199 9.37335 0.721265 8.24335C0.240544 7.10335 0.000183105 6.01335 0.000183105 4.97335C0.000183105 4.29335 0.120363 3.64335 0.360724 3.04335C0.601084 2.43335 0.981655 1.87335 1.51245 1.37335C2.15341 0.74335 2.85446 0.43335 3.59558 0.43335C3.876 0.43335 4.15642 0.49335 4.40679 0.61335C4.66718 0.73335 4.89753 0.91335 5.0778 1.17335L7.40129 4.44335C7.58156 4.69335 7.71175 4.92335 7.80189 5.14335C7.89202 5.35335 7.9421 5.56335 7.9421 5.75335C7.9421 5.99335 7.87199 6.23335 7.73178 6.46335C7.60159 6.69335 7.4113 6.93335 7.17094 7.17335L6.4098 7.96335C6.29963 8.07335 6.24956 8.20335 6.24956 8.36335C6.24956 8.44335 6.25957 8.51335 6.2796 8.59335C6.30965 8.67335 6.33969 8.73335 6.35972 8.79335C6.53999 9.12335 6.85046 9.55335 7.29112 10.0733C7.7418 10.5933 8.22252 11.1234 8.7433 11.6533C9.28411 12.1833 9.80489 12.6733 10.3357 13.1233C10.8565 13.5633 11.2871 13.8633 11.6276 14.0433C11.6777 14.0633 11.7378 14.0933 11.8079 14.1233C11.888 14.1533 11.9681 14.1633 12.0583 14.1633C12.2285 14.1633 12.3587 14.1033 12.4689 13.9934L13.23 13.2434C13.4804 12.9934 13.7208 12.8033 13.9511 12.6833C14.1815 12.5433 14.4118 12.4733 14.6622 12.4733C14.8525 12.4733 15.0528 12.5133 15.2731 12.6033C15.4934 12.6933 15.7238 12.8233 15.9741 12.9934L19.2891 15.3433C19.5495 15.5233 19.7298 15.7333 19.8399 15.9833C19.9401 16.2333 20.0002 16.4833 20.0002 16.7633Z" fill="#E7FFEF"/>
</svg>
