<svg width="26" height="26" viewBox="0 0 26 26" fill="none" xmlns="http://www.w3.org/2000/svg">
<path d="M13 0C5.824 0 0 5.824 0 13C0 20.176 5.824 26 13 26C20.176 26 26 20.176 26 13C26 5.824 20.176 0 13 0Z" fill="#00A3FF"/>
<path d="M18.0895 8.69615L16.2411 17.4133C16.1015 18.0285 15.738 18.1816 15.2213 17.892L12.4046 15.8165L11.0458 17.1237C10.8953 17.2742 10.7697 17.3998 10.4796 17.3998L10.6822 14.5315L15.902 9.81484C16.1291 9.61271 15.8526 9.50028 15.5494 9.70284L9.09627 13.7663L6.31815 12.8966C5.71396 12.708 5.70302 12.2924 6.44415 12.0023L17.3103 7.8159C17.8135 7.62734 18.2536 7.9279 18.0895 8.69659V8.69615Z" fill="white"/>
</svg>
