<svg width="24" height="24" viewBox="0 0 24 24" fill="none" xmlns="http://www.w3.org/2000/svg">
<rect width="24" height="24" rx="8" fill="#4071F0"/>
<path fill-rule="evenodd" clip-rule="evenodd" d="M19.633 9.54171C19.7437 9.22971 19.633 9 19.103 9H17.3531C16.9077 9 16.7024 9.19829 16.5911 9.41714C16.5911 9.41714 15.7011 11.2434 14.4404 12.4297C14.0325 12.7737 13.8471 12.8829 13.6245 12.8829C13.5131 12.8829 13.3458 12.7737 13.3458 12.4611V9.54171C13.3458 9.16686 13.2231 9 12.8525 9H10.1005C9.82254 9 9.65521 9.17371 9.65521 9.33886C9.65521 9.69371 10.2859 9.776 10.3505 10.7749V12.9451C10.3505 13.4211 10.2485 13.5074 10.0259 13.5074C9.43255 13.5074 7.98925 11.6726 7.1326 9.57314C6.9666 9.16457 6.79861 9 6.35128 9H4.59999C4.1 9 4 9.19829 4 9.41714C4 9.80686 4.59332 11.7429 6.76328 14.3034C8.20991 16.052 10.2465 17 12.1018 17C13.2145 17 13.3518 16.7897 13.3518 16.4269V15.1051C13.3518 14.684 13.4571 14.6 13.8098 14.6C14.0698 14.6 14.5144 14.7097 15.5531 15.5526C16.7397 16.552 16.9351 17 17.603 17H19.353C19.853 17 20.1037 16.7897 19.9597 16.3737C19.801 15.96 19.2343 15.3594 18.483 14.6469C18.075 14.2411 17.4631 13.804 17.2771 13.5851C17.0177 13.3046 17.0917 13.1794 17.2771 12.9297C17.2771 12.9297 19.4103 10.4006 19.6323 9.54171H19.633Z" fill="white"/>
</svg>
