<svg width="30" height="30" viewBox="0 0 30 30" fill="none" xmlns="http://www.w3.org/2000/svg">
<path d="M27.4749 14.2626C27.0499 7.01256 20.4624 1.42507 12.8749 2.67507C7.64987 3.53757 3.46238 7.77505 2.64988 13C2.17488 16.025 2.79991 18.8876 4.16241 21.2501L3.04989 25.3876C2.79989 26.3251 3.66236 27.1751 4.58736 26.9126L8.66237 25.7876C10.5124 26.8751 12.6749 27.5001 14.9874 27.5001C22.0374 27.5001 27.8874 21.2876 27.4749 14.2626ZM21.0999 19.6501C20.9874 19.8751 20.8499 20.0876 20.6749 20.2876C20.3624 20.6251 20.0248 20.8751 19.6498 21.0251C19.2748 21.1876 18.8624 21.2626 18.4249 21.2626C17.7874 21.2626 17.0999 21.1126 16.3874 20.8001C15.6624 20.4876 14.9499 20.075 14.2374 19.5625C13.5124 19.0375 12.8374 18.4501 12.1874 17.8126C11.5374 17.1626 10.9624 16.475 10.4374 15.7625C9.92485 15.05 9.51238 14.3375 9.21238 13.625C8.91238 12.9125 8.7624 12.2251 8.7624 11.5751C8.7624 11.1501 8.83739 10.7376 8.98739 10.3626C9.13739 9.97507 9.37491 9.62507 9.71241 9.31257C10.1124 8.91257 10.5499 8.72507 11.0124 8.72507C11.1874 8.72507 11.3623 8.76257 11.5248 8.83756C11.6873 8.91257 11.8374 9.02506 11.9499 9.18756L13.3998 11.2375C13.5123 11.4 13.5999 11.5376 13.6499 11.6751C13.7124 11.8126 13.7374 11.9375 13.7374 12.0625C13.7374 12.2125 13.6874 12.3626 13.5999 12.5126C13.5124 12.6626 13.3999 12.8126 13.2499 12.9626L12.7748 13.4625C12.6998 13.5375 12.6749 13.6126 12.6749 13.7126C12.6749 13.7626 12.6874 13.8126 12.6999 13.8626C12.7249 13.9126 12.7374 13.9501 12.7499 13.9876C12.8624 14.2001 13.0624 14.4625 13.3374 14.7875C13.6249 15.1125 13.9249 15.4501 14.2499 15.7751C14.5874 16.1126 14.9124 16.4125 15.2499 16.7C15.5749 16.975 15.8499 17.1626 16.0624 17.2751C16.0999 17.2876 16.1374 17.3125 16.1749 17.325C16.2249 17.35 16.2749 17.3501 16.3374 17.3501C16.4499 17.3501 16.5249 17.3126 16.5999 17.2376L17.0749 16.7626C17.2374 16.6001 17.3874 16.4876 17.5249 16.4126C17.6749 16.3251 17.8124 16.275 17.9749 16.275C18.0999 16.275 18.2249 16.3001 18.3624 16.3626C18.4999 16.4251 18.6499 16.5001 18.7999 16.6126L20.8749 18.0876C21.0374 18.2001 21.1499 18.3376 21.2249 18.4876C21.2874 18.6501 21.3249 18.8 21.3249 18.975C21.2499 19.1875 21.1999 19.4251 21.0999 19.6501Z" fill="#34CE69"/>
</svg>
